<svg xmlns="http://www.w3.org/2000/svg" width="108.294" height="111.235" viewBox="0 0 108.294 111.235">
  <g id="blog" transform="translate(0)">
    <path id="Path_309" data-name="Path 309" d="M70.067,156.713h37.88a1.629,1.629,0,0,0,0-3.259H70.067a1.629,1.629,0,0,0,0,3.259Z" transform="translate(-55.04 -120.115)" fill="#3f3d56"/>
    <path id="Path_310" data-name="Path 310" d="M70.067,194.377h37.88a1.629,1.629,0,0,0,0-3.259H70.067a1.629,1.629,0,1,0,0,3.259Z" transform="translate(-55.04 -149.596)" fill="#3f3d56"/>
    <path id="Path_311" data-name="Path 311" d="M70.067,232.04h37.88a1.629,1.629,0,0,0,0-3.259H70.067a1.629,1.629,0,1,0,0,3.259Z" transform="translate(-55.04 -179.077)" fill="#3f3d56"/>
    <path id="Path_312" data-name="Path 312" d="M70.067,269.7h37.88a1.629,1.629,0,0,0,0-3.259H70.067a1.629,1.629,0,1,0,0,3.259Z" transform="translate(-55.04 -208.558)" fill="#3f3d56"/>
    <path id="Path_313" data-name="Path 313" d="M70.067,307.367H84.92a1.629,1.629,0,0,0,0-3.259H70.067a1.629,1.629,0,0,0,0,3.259Z" transform="translate(-55.04 -238.038)" fill="#3f3d56"/>
    <path id="Path_314" data-name="Path 314" d="M109.64,11.851l1.429-2.645A4.617,4.617,0,0,0,109.2,2.957l-4.444-2.4A4.612,4.612,0,0,0,98.51,2.422L95.74,7.55a6.079,6.079,0,0,0-2.453,1.624c-1.71,1.868-3.492,4.039-5.294,6.446a534.123,534.123,0,0,0-54.263-.493c-5,.207-10.04.489-14.986.839a11.34,11.34,0,0,0-10.5,10.078,250.294,250.294,0,0,0,0,54.322,11.353,11.353,0,0,0,10.491,10.1c.393.029.785.055,1.167.079a3.83,3.83,0,0,1,2.723,1.421,1.629,1.629,0,1,0,2.542-2.039,7.1,7.1,0,0,0-5.055-2.634c-.379-.023-.76-.049-1.145-.077a8.1,8.1,0,0,1-7.484-7.2,247.021,247.021,0,0,1,0-53.612,8.084,8.084,0,0,1,7.485-7.182c4.917-.347,9.928-.628,14.895-.834,17.19-.723,34.623-.6,51.864.369q-1.634,2.34-3.258,4.891a1.63,1.63,0,0,0,2.75,1.749A103.33,103.33,0,0,1,95.69,11.375a2.843,2.843,0,0,1,3.452-.575l4.573,2.47a2.839,2.839,0,0,1,1.411,3.2c-1.91,7.52-5.788,16.893-10.919,26.393-2.09,3.868-4.278,7.554-6.494,10.953l-13.7-7.4c1.628-3.717,3.508-7.568,5.6-11.437.649-1.2,1.3-2.365,1.922-3.458A1.629,1.629,0,1,0,78.7,29.9c-.64,1.116-1.3,2.3-1.962,3.53-5.177,9.586-9.13,19.113-11.131,26.826-1.872,7.216-1.856,12.058.037,14.444l-.436.71a1.629,1.629,0,1,0,2.777,1.705l.5-.812a4.764,4.764,0,0,0,.592.037c2.983,0,6.894-2.648,11.665-7.909C86.1,62.527,91.9,54,97.075,44.413c1.578-2.921,3.039-5.834,4.367-8.691.111,1.558.2,3.119.283,4.68l-.393.587c-5.509,8.238-8.868,13.444-8.532,16.525a1.63,1.63,0,0,0,1.618,1.453,1.656,1.656,0,0,0,.179-.01,1.63,1.63,0,0,0,1.443-1.8c-.183-1.678,2.813-6.519,5.912-11.22A247.01,247.01,0,0,1,100.6,80.026a8.1,8.1,0,0,1-7.485,7.187c-13.151.924-26.533,1.359-39.78,1.291a7.055,7.055,0,0,0-5.849,3.022c-4.222,6.073-11.2,11.987-16.3,15.878a2.775,2.775,0,0,1-4.455-2.213V97.97a1.629,1.629,0,1,0-3.259,0v7.222a6.028,6.028,0,0,0,9.689,4.8c5.294-4.034,12.541-10.19,17.006-16.612A3.805,3.805,0,0,1,53.3,91.763h.019c13.322.066,26.791-.37,40.023-1.3a11.362,11.362,0,0,0,10.5-10.08,250.4,250.4,0,0,0,1.194-39.072c4.6-6.9,9.09-13.853,9.863-18.651a9.8,9.8,0,0,0-5.258-10.81ZM78.329,66.24c-5.772,6.363-8.879,7.213-9.805,6.713s-1.918-3.565.239-11.88a93.382,93.382,0,0,1,3.97-11.644l13.16,7.108A93.315,93.315,0,0,1,78.329,66.24ZM100.69,7.932a6.124,6.124,0,0,0-1.19-.484l1.878-3.476a1.353,1.353,0,0,1,1.833-.547l4.444,2.4a1.355,1.355,0,0,1,.548,1.833l-1.878,3.476a6.15,6.15,0,0,0-1.06-.731Zm10.99,14.211c-.539,3.342-3.571,8.5-6.964,13.732q-.224-3.228-.532-6.445a95.12,95.12,0,0,0,4.1-12.156,6.076,6.076,0,0,0,.121-2.387C111.1,16.453,112.2,18.887,111.68,22.143Z" transform="translate(-6.769 0)" fill="#3f3d56"/>
  </g>
</svg>
