<svg xmlns="http://www.w3.org/2000/svg" width="278" height="275" viewBox="0 0 278 275">
  <g id="Group_88" data-name="Group 88" transform="translate(-187 -1510)">
    <line id="Line_14" data-name="Line 14" x2="80" y2="72" transform="translate(208.5 1578.5)" fill="none" stroke="#707070" stroke-width="1"/>
    <line id="Line_6" data-name="Line 6" x2="62" y2="41" transform="translate(264.5 1528.5)" fill="none" stroke="#707070" stroke-width="1"/>
    <line id="Line_7" data-name="Line 7" x1="56" y2="49" transform="translate(208.5 1528.5)" fill="none" stroke="#707070" stroke-width="1"/>
    <line id="Line_8" data-name="Line 8" y1="73" x2="79" transform="translate(372.5 1569.5)" fill="none" stroke="#707070" stroke-width="1"/>
    <line id="Line_9" data-name="Line 9" x2="46" y2="73" transform="translate(326.5 1569.5)" fill="none" stroke="#707070" stroke-width="1"/>
    <line id="Line_10" data-name="Line 10" x1="84" y2="8" transform="translate(288.5 1642.5)" fill="none" stroke="#707070" stroke-width="1"/>
    <line id="Line_11" data-name="Line 11" y1="77" x2="38" transform="translate(288.5 1573.5)" fill="none" stroke="#707070" stroke-width="1"/>
    <line id="Line_13" data-name="Line 13" x2="7" y2="128" transform="translate(288.5 1650.5)" fill="none" stroke="#707070" stroke-width="1"/>
    <line id="Line_12" data-name="Line 12" x2="65" y2="68" transform="translate(372.5 1642.5)" fill="none" stroke="#707070" stroke-width="1"/>
    <circle id="Ellipse_45" data-name="Ellipse 45" cx="22" cy="22" r="22" transform="translate(208 1688)" fill="#cd7f32"/>
    <circle id="Ellipse_46" data-name="Ellipse 46" cx="21.5" cy="21.5" r="21.5" transform="translate(187 1556)" fill="#ff718a"/>
    <circle id="Ellipse_47" data-name="Ellipse 47" cx="18" cy="18" r="18" transform="translate(246 1510)" fill="#6c63ff"/>
    <circle id="Ellipse_48" data-name="Ellipse 48" cx="24" cy="24" r="24" transform="translate(264 1626)" fill="#01b880"/>
    <circle id="Ellipse_49" data-name="Ellipse 49" cx="10" cy="10" r="10" transform="translate(331 1700)" fill="#007a74"/>
    <circle id="Ellipse_50" data-name="Ellipse 50" cx="7" cy="7" r="7" transform="translate(288 1771)" fill="#02faec"/>
    <circle id="Ellipse_51" data-name="Ellipse 51" cx="7" cy="7" r="7" transform="translate(366 1764)" fill="#ffc000"/>
    <circle id="Ellipse_52" data-name="Ellipse 52" cx="12.5" cy="12.5" r="12.5" transform="translate(360 1630)" fill="#8fcddf"/>
    <circle id="Ellipse_53" data-name="Ellipse 53" cx="13.5" cy="13.5" r="13.5" transform="translate(314 1556)" fill="#e10000"/>
    <circle id="Ellipse_54" data-name="Ellipse 54" cx="13.5" cy="13.5" r="13.5" transform="translate(438 1556)" fill="#575a89"/>
    <circle id="Ellipse_55" data-name="Ellipse 55" cx="16.5" cy="16.5" r="16.5" transform="translate(421 1694)" fill="#e2ab04"/>
  </g>
</svg>
