<svg xmlns="http://www.w3.org/2000/svg" width="98.981" height="98.971" viewBox="0 0 98.981 98.971">
  <g id="communities" transform="translate(0)">
    <path id="Path_315" data-name="Path 315" d="M39.87,38.017a7.978,7.978,0,1,0-7.4,0A11.181,11.181,0,0,0,25,48.548a1.6,1.6,0,0,0,1.6,1.6H45.744a1.6,1.6,0,0,0,1.6-1.6A11.181,11.181,0,0,0,39.87,38.017Zm-3.7-11.808A4.787,4.787,0,1,1,31.383,31,4.787,4.787,0,0,1,36.17,26.209ZM28.351,46.953a7.978,7.978,0,0,1,15.638,0Z" transform="translate(13.346 12.141)" fill="#3f3d56"/>
    <path id="Path_316" data-name="Path 316" d="M83.993,68.038A15.882,15.882,0,0,0,73.9,71.646l-7.682-7.682a20.637,20.637,0,0,0,4.966-12.649l16.295-.6a6.338,6.338,0,1,0-.142-3.191l-16.257.6A20.744,20.744,0,0,0,61.84,33.144L64.89,27.6a9.587,9.587,0,1,0-2.8-1.538l-3.051,5.547a20.6,20.6,0,0,0-22.038,3.137l-7.682-7.682a15.982,15.982,0,1,0-2.256,2.256L34.749,37a20.517,20.517,0,0,0-4.639,17.313L16.1,58.088a7.916,7.916,0,1,0,.879,3.568c0-.16-.038-.319-.049-.479L30.95,57.4a20.827,20.827,0,0,0,8.87,10.851L36.442,75A11.194,11.194,0,1,0,39.3,76.431l3.37-6.743a20.626,20.626,0,0,0,21.3-3.467L71.644,73.9a15.949,15.949,0,1,0,12.349-5.864ZM93.567,45.7a3.191,3.191,0,1,1-3.191,3.191A3.191,3.191,0,0,1,93.567,45.7ZM68.036,12.19a6.383,6.383,0,1,1-6.383,6.383A6.383,6.383,0,0,1,68.036,12.19ZM9,66.443a4.787,4.787,0,1,1,4.787-4.787A4.787,4.787,0,0,1,9,66.443ZM40.91,85.59a7.978,7.978,0,1,1-7.978-7.978A7.978,7.978,0,0,1,40.91,85.59ZM4.21,16.977A12.765,12.765,0,1,1,26.433,25.52a1.559,1.559,0,0,0,.116-.565,9.507,9.507,0,0,0-2.8-6.77A9.623,9.623,0,0,0,21.6,16.57a6.383,6.383,0,1,0-9.237,0A9.574,9.574,0,0,0,7.4,24.955a1.6,1.6,0,0,0,.112.56,12.7,12.7,0,0,1-3.3-8.538Zm12.765-1.6a3.191,3.191,0,1,1,3.191-3.191A3.191,3.191,0,0,1,16.975,15.381Zm0,3.191a6.383,6.383,0,0,1,6.18,4.787H10.794a6.394,6.394,0,0,1,6.182-4.787ZM8.438,26.439A1.577,1.577,0,0,0,9,26.551H24.953a1.561,1.561,0,0,0,.566-.115,12.686,12.686,0,0,1-17.074,0ZM32.932,50.486A17.552,17.552,0,1,1,50.484,68.038,17.552,17.552,0,0,1,32.932,50.486ZM75.456,93.457a1.576,1.576,0,0,0,.558.112H91.971a1.561,1.561,0,0,0,.566-.115,12.686,12.686,0,0,1-17.074,0ZM83.993,82.4a3.191,3.191,0,1,1,3.191-3.191A3.191,3.191,0,0,1,83.993,82.4Zm0,3.191a6.383,6.383,0,0,1,6.18,4.787H77.811a6.394,6.394,0,0,1,6.182-4.787Zm9.456,6.948a1.559,1.559,0,0,0,.118-.565,9.507,9.507,0,0,0-2.8-6.77,9.623,9.623,0,0,0-2.145-1.615,6.383,6.383,0,1,0-9.237,0,9.574,9.574,0,0,0-4.964,8.385,1.6,1.6,0,0,0,.112.56,12.765,12.765,0,1,1,18.92,0Z" transform="translate(-0.969 -0.966)" fill="#3f3d56"/>
  </g>
</svg>
