<svg xmlns="http://www.w3.org/2000/svg" width="129.46" height="130.337" viewBox="0 0 129.46 130.337">
  <g id="microscope" opacity="0.6">
    <g id="Group_54" data-name="Group 54" transform="translate(0 0.877)">
      <g id="Group_53" data-name="Group 53">
        <path id="Path_304" data-name="Path 304" d="M29.639,107.765q-.987-.933-1.986-1.881c9.891-9.7,19.964-21.624,19.964-37.794S37.545,40,27.653,30.294q1-.949,1.986-1.881c8.528-8.056,15.89-15.013,15.89-22.965V3.36H41.353V5.448a10.477,10.477,0,0,1-.969,4.176H8.913a10.477,10.477,0,0,1-.969-4.176V3.36H3.768V5.448c0,7.951,7.363,14.909,15.89,22.967q.987.933,1.986,1.881C11.753,40,1.68,51.92,1.68,68.09s10.073,28.091,19.964,37.8q-1,.949-1.986,1.881c-8.528,8.056-15.89,15.013-15.89,22.965v2.088H7.944v-2.088a10.477,10.477,0,0,1,.969-4.176H40.387a10.509,10.509,0,0,1,.967,4.176v2.088h4.176v-2.088C45.529,122.781,38.167,115.823,29.639,107.765ZM11.41,13.8H37.887a49.027,49.027,0,0,1-3.566,4.176H14.977A48.65,48.65,0,0,1,11.41,13.8Zm7.726,8.352H30.159c-1.1,1.057-2.228,2.128-3.389,3.226-.7.66-1.407,1.33-2.121,2.009l-2.121-2.009C21.366,24.28,20.232,23.209,19.136,22.153Zm5.512,11.04c2.527,2.472,5.024,5.039,7.331,7.753H17.318C19.625,38.231,22.122,35.664,24.649,33.192ZM9.093,53.474H28.825V49.3H11.293q1.344-2.271,2.915-4.41v.234H35.089v-.234Q36.658,47.027,38,49.3H33v4.176h7.206a38.005,38.005,0,0,1,1.581,4.176H7.512A37.587,37.587,0,0,1,9.093,53.474ZM6.435,61.826H42.865A34.692,34.692,0,0,1,43.347,66H5.952A33.868,33.868,0,0,1,6.435,61.826ZM7.51,78.53h6.7V74.354H6.432a34.694,34.694,0,0,1-.482-4.176h37.4a33.868,33.868,0,0,1-.482,4.176H18.385V78.53h23.4A37.586,37.586,0,0,1,40.2,82.707H9.091A38.005,38.005,0,0,1,7.51,78.53Zm6.7,12.762q-1.569-2.142-2.915-4.41H38q-1.341,2.271-2.915,4.41v-.234H14.208v.234Zm3.109,3.942H31.98c-2.307,2.715-4.8,5.281-7.331,7.753C22.122,100.516,19.625,97.949,17.318,95.235Zm5.21,15.567c.7-.66,1.407-1.33,2.121-2.009q1.074,1.021,2.121,2.009c1.161,1.1,2.295,2.17,3.389,3.226H19.136C20.232,112.971,21.366,111.9,22.527,110.8ZM11.41,122.38a49.023,49.023,0,0,1,3.566-4.176H34.323a49.024,49.024,0,0,1,3.566,4.176Z" transform="translate(-1.68 -3.36)" fill="#fafafa"/>
      </g>
    </g>
    <g id="Group_56" data-name="Group 56" transform="translate(45.937)">
      <g id="Group_55" data-name="Group 55">
        <path id="Path_305" data-name="Path 305" d="M250.762,113.633h-3.368a60.457,60.457,0,0,0-11.85-73.617l5.669-5.669-4.178-4.178,7.49-7.486,2.1,2.094,9.175-9.256L240.318,0l-9.175,9.311,2.071,2.071-7.5,7.471-4.161-4.162L192.324,43.925l-4.176-4.176-9.217,9.217L206.94,76.975l9.217-9.217-4.176-4.176,11.714-11.714A44.167,44.167,0,0,1,236.436,72.08a8.335,8.335,0,0,0,1.6,16.475,43.881,43.881,0,0,1-.812,5.189,14.539,14.539,0,0,0-5.251-.992H200.649a10.452,10.452,0,0,0-10.44,10.44v2.088H217.52a14.672,14.672,0,0,0-.167,2.088v6.264H188.12a10.452,10.452,0,0,0-10.44,10.44v6.264H261.2v-6.264A10.452,10.452,0,0,0,250.762,113.633ZM240.335,5.93l9.57,9.6-3.3,3.33-9.578-9.572Zm-4.166,8.4,5.4,5.4-7.488,7.484-5.41-5.41ZM206.94,71.067l-22.1-22.1,3.312-3.312,22.1,22.1Zm2.088-10.44L195.276,46.875l26.28-26.28,13.752,13.752Zm17.623-11.716,5.941-5.941a56.362,56.362,0,0,1,13.919,62.924A14.6,14.6,0,0,0,241,95.9a48.1,48.1,0,0,0,1.295-8.425,8.287,8.287,0,0,0-1.46-15.147A48.306,48.306,0,0,0,226.651,48.911Zm7.406,31.313a4.176,4.176,0,1,1,4.176,4.176A4.18,4.18,0,0,1,234.058,80.224ZM194.742,101.1a6.276,6.276,0,0,1,5.907-4.176h21.11a14.644,14.644,0,0,0-2.975,4.176Zm62.285,25.057h-75.17v-2.088a6.272,6.272,0,0,1,6.264-6.264h37.585v-4.176h-4.176v-6.264a10.44,10.44,0,1,1,20.881,0v6.264H229.882v4.176h20.881a6.272,6.272,0,0,1,6.264,6.264Z" transform="translate(-177.68)" fill="#fafafa"/>
      </g>
    </g>
  </g>
</svg>
