<svg id="book_1_" data-name="book (1)" xmlns="http://www.w3.org/2000/svg" width="106.19" height="106.19" viewBox="0 0 106.19 106.19">
  <path id="Path_306" data-name="Path 306" d="M53.1,0H30.087a1.77,1.77,0,0,0-1.77,1.77V14.159H1.77A1.77,1.77,0,0,0,0,15.929v88.492a1.77,1.77,0,0,0,1.77,1.77H53.1a1.77,1.77,0,0,0,1.77-1.77V1.77A1.77,1.77,0,0,0,53.1,0Zm-1.77,92.032H31.857v-3.54H51.325ZM3.54,26.548H28.317v53.1H3.54Zm47.786-7.079H31.857v-5.31H51.325ZM3.54,83.183H28.317v5.31H3.54Zm28.317,1.77V23.008H51.325V84.952ZM51.325,3.54v7.079H31.857V3.54ZM28.317,17.7v5.31H3.54V17.7ZM3.54,92.032H28.317v10.619H3.54Zm28.317,10.619V95.571H51.325v7.079Zm0,0" fill="#3f3d56"/>
  <path id="Path_307" data-name="Path 307" d="M299.266,146.737,278.028,65.325a1.768,1.768,0,0,0-2.169-1.263l-26.548,7.079a1.769,1.769,0,0,0-1.257,2.155l21.238,81.413a1.765,1.765,0,0,0,2.169,1.26l26.548-7.079A1.77,1.77,0,0,0,299.266,146.737ZM254.745,84.917l23.128-6.166.832,3.185-23.126,6.175Zm24.854.454,10.265,39.375-23.119,6.169L256.479,91.536Zm11.166,42.8,1.812,6.945-23.128,6.166-1.805-6.943ZM275.052,67.939l1.927,7.389-23.128,6.164-1.925-7.385Zm-2.783,84.156-1.927-7.389,23.128-6.168,1.925,7.385Zm0,0" transform="translate(-193.133 -49.842)" fill="#3f3d56"/>
  <path id="Path_308" data-name="Path 308" d="M47.929,144H33.77A1.77,1.77,0,0,0,32,145.77v14.159a1.77,1.77,0,0,0,1.77,1.77H47.929a1.77,1.77,0,0,0,1.77-1.77V145.77A1.77,1.77,0,0,0,47.929,144Zm-1.77,14.159H35.54V147.54H46.159Zm0,0" transform="translate(-24.921 -112.143)" fill="#3f3d56"/>
</svg>
