<svg xmlns="http://www.w3.org/2000/svg" width="104.921" height="104.92" viewBox="0 0 104.921 104.92">
  <g id="Page-1" transform="translate(0)">
    <g id="_001---Thinking" data-name="001---Thinking" transform="translate(0)">
      <path id="Shape" d="M3.574,66.384a12.818,12.818,0,0,0,1.815,1.049c.757.386,2.023,1.033,2.112,1.488a3.02,3.02,0,0,1-.2,1.77c-.261.56-.535,1.04-.769,1.457-.642,1.13-1.712,3.023-.1,4.345.378.35,1.03.855,1.626,1.311a4.407,4.407,0,0,0-.57,2.523,2.523,2.523,0,0,0,1.026,1.714c.393.28.815.525,1.224.761,1.028.586,1.43.859,1.574,1.4a4.828,4.828,0,0,1-.192,2.118c-.1.455-.2.908-.268,1.373a10.278,10.278,0,0,0,.591,4.711,6.552,6.552,0,0,0,6.2,4.774,7.105,7.105,0,0,0,1.429-.15,132.568,132.568,0,0,0,14.743-4.412c3.938,2.312,6.428,9.341,7.077,11.98a1.749,1.749,0,0,0,1.7,1.325l43.89-.122a1.749,1.749,0,0,0,1.665-2.273,13.507,13.507,0,0,0-1.771-3.322,16.224,16.224,0,0,1-1.133-1.889,33.289,33.289,0,0,1-1.974-4.978,58.937,58.937,0,0,1-2.069-10.345,29.6,29.6,0,0,1,2.3-15.355,39.088,39.088,0,0,1,4.749-7.507c1.049-1.416,2.139-2.883,3.116-4.424a27.044,27.044,0,0,0,3.6-8.516,1.749,1.749,0,0,0-3.406-.79A23.607,23.607,0,0,1,88.4,53.829c-.908,1.436-1.957,2.849-2.973,4.216a42.255,42.255,0,0,0-5.146,8.192,33.08,33.08,0,0,0-2.563,17.171,62.068,62.068,0,0,0,2.205,10.969,36.449,36.449,0,0,0,2.17,5.477,19.109,19.109,0,0,0,1.355,2.273l.117.175-39.662.119a27.885,27.885,0,0,0-6.157-11.167l1.574-.547c1.175-.411,2.062-.72,2.52-.874,7.488-2.387,11.233-5.8,11.13-10.142a1.717,1.717,0,0,0-1.785-1.7,1.748,1.748,0,0,0-1.707,1.789c.042,1.789-1.432,4.408-8.7,6.723-.476.152-1.4.472-2.607.9-1.3.453-2.946,1.03-4.765,1.647h-.012A136.2,136.2,0,0,1,18.367,93.6a3.114,3.114,0,0,1-3.6-2.327,7,7,0,0,1-.432-3.1c.051-.35.133-.717.213-1.074a7.631,7.631,0,0,0,.175-3.765,5.8,5.8,0,0,0-3.228-3.569l-.376-.215a6.435,6.435,0,0,1,.675-1.084,1.749,1.749,0,0,0-.337-2.49c-.418-.308-1.4-1.049-2.133-1.633.084-.152.175-.32.264-.47.275-.483.589-1.049.894-1.691a6.528,6.528,0,0,0,.465-3.912c-.418-2.133-2.462-3.179-3.954-3.941a10.1,10.1,0,0,1-1.441-.838,7.453,7.453,0,0,1-1.049-.85c0-.266.285-.908,1.616-2.529a70.553,70.553,0,0,0,8-13,5.2,5.2,0,0,0,.675-2.364,6.12,6.12,0,0,0-2.565-4.372c-.708-.65-1.378-1.263-1.453-1.778a3.436,3.436,0,0,1,.283-1.243c.285-.748.616-1.483.944-2.219a25.665,25.665,0,0,0,1.749-4.741,46.9,46.9,0,0,1,1.574-5.784A29.98,29.98,0,0,1,21.6,14.359C24.94,10.818,30.2,8.314,37.268,6.911A113.627,113.627,0,0,1,53.674,4.547a38.276,38.276,0,0,1,5.569.119,1.753,1.753,0,1,0,.325-3.49,42.535,42.535,0,0,0-6.078-.121A116.717,116.717,0,0,0,36.577,3.482c-7.885,1.574-13.615,4.338-17.525,8.472A33.445,33.445,0,0,0,12.037,23.4a51.122,51.122,0,0,0-1.722,6.32,22.648,22.648,0,0,1-1.5,3.987c-.35.8-.71,1.591-1.025,2.418a6.11,6.11,0,0,0-.476,2.936,6.724,6.724,0,0,0,2.558,3.892c.857.785,1.422,1.338,1.429,1.82a2.962,2.962,0,0,1-.3.759A67.5,67.5,0,0,1,3.352,57.962C2.086,59.506.757,61.306,1.035,63.107A5.358,5.358,0,0,0,3.574,66.384Z" transform="translate(-0.998 -0.999)" fill="#3f3d56"/>
      <path id="Shape-2" data-name="Shape" d="M14.958,23.054a23.034,23.034,0,0,1,4.8-7.869c2.331-2.467,6.361-4.284,11.982-5.4a1.749,1.749,0,0,0-.68-3.431c-6.346,1.263-11,3.424-13.842,6.424a26.509,26.509,0,0,0-5.54,9.072,44.5,44.5,0,0,0-1.436,5.335l3.415.757A41.812,41.812,0,0,1,14.958,23.054Z" transform="translate(5.921 2.984)" fill="#3f3d56"/>
      <path id="Shape-3" data-name="Shape" d="M43.486,10.792l-1.049,5.232a20.829,20.829,0,0,0-2.945,1.224l-4.44-2.973a3.5,3.5,0,0,0-4.393.456l-2.9,2.9a3.5,3.5,0,0,0-.462,4.433l2.959,4.419a20.821,20.821,0,0,0-1.224,2.945L23.8,30.478A3.5,3.5,0,0,0,21,33.909v4.127a3.5,3.5,0,0,0,2.8,3.429l5.232,1.049a20.821,20.821,0,0,0,1.224,2.945L27.281,49.9a3.5,3.5,0,0,0,.456,4.393l2.9,2.9a3.508,3.508,0,0,0,4.431.46l4.419-2.959a20.821,20.821,0,0,0,2.945,1.224l1.049,5.225a3.5,3.5,0,0,0,3.431,2.807h4.127a3.5,3.5,0,0,0,3.429-2.8l1.049-5.232A20.821,20.821,0,0,0,58.464,54.7l4.44,2.973a3.5,3.5,0,0,0,4.393-.456l2.9-2.9a3.5,3.5,0,0,0,.462-4.433L67.7,45.46a20.821,20.821,0,0,0,1.224-2.945l5.225-1.049a3.483,3.483,0,0,0,2.408-1.822l2.635,1.766a3.192,3.192,0,0,0,1.7.491,3.148,3.148,0,0,0,2.233-.929l2.326-2.326a3.176,3.176,0,0,0,.407-3.976L83.6,31.3a16.448,16.448,0,0,0,.846-2.032l3.957-.789a3.147,3.147,0,0,0,2.541-3.1V22.088a3.148,3.148,0,0,0-2.527-3.1L84.443,18.2a16.193,16.193,0,0,0-.843-2.032l2.291-3.415a3.16,3.16,0,0,0-.437-3.931L83.128,6.5a3.174,3.174,0,0,0-3.976-.407L75.777,8.344A16.438,16.438,0,0,0,73.745,7.5l-.79-3.957A3.148,3.148,0,0,0,69.856,1H66.569a3.148,3.148,0,0,0-3.1,2.527L62.68,7.5a16.185,16.185,0,0,0-2.032.848L57.233,6.059A3.163,3.163,0,0,0,53.3,6.5L51.729,8.07a3.582,3.582,0,0,0-.687-.075H46.915A3.5,3.5,0,0,0,43.486,10.792Zm26.733,6.855L69.4,16.83a6.958,6.958,0,0,1,2.174,13.127l-2.654-.525A20.82,20.82,0,0,0,67.7,26.488l2.973-4.44a3.5,3.5,0,0,0-.451-4.4ZM55.582,9.156l4,2.686a1.749,1.749,0,0,0,1.868.051,12.79,12.79,0,0,1,3.2-1.338,1.748,1.748,0,0,0,1.259-1.346L66.845,4.5H69.58l.939,4.721a1.748,1.748,0,0,0,1.259,1.346,12.79,12.79,0,0,1,3.2,1.338,1.749,1.749,0,0,0,1.868-.061l4-2.682L82.784,11.1l-2.681,4a1.748,1.748,0,0,0-.051,1.868,12.788,12.788,0,0,1,1.338,3.2,1.749,1.749,0,0,0,1.346,1.259l4.721.939V25.1l-4.713.939A1.749,1.749,0,0,0,81.4,27.3a12.788,12.788,0,0,1-1.338,3.2,1.748,1.748,0,0,0,.051,1.868l2.682,4L80.854,38.3l-3.9-2.607V33.909a3.508,3.508,0,0,0-1.224-2.663A10.467,10.467,0,0,0,68.44,13.24a10.119,10.119,0,0,0-3.111.511,3.546,3.546,0,0,0-2.448.539l-4.415,2.959a20.829,20.829,0,0,0-2.945-1.224L54.472,10.8a3.2,3.2,0,0,0-.121-.413Zm-9.927,8.591,1.259-6.255h4.127l1.257,6.26a1.749,1.749,0,0,0,1.257,1.343,17.226,17.226,0,0,1,4.128,1.714,1.748,1.748,0,0,0,1.85-.059l5.291-3.539,2.931,2.915-3.55,5.3a1.748,1.748,0,0,0-.059,1.85A17.225,17.225,0,0,1,65.861,31.4,1.749,1.749,0,0,0,67.2,32.657l6.255,1.25v4.128L67.2,39.293a1.749,1.749,0,0,0-1.343,1.257,17.226,17.226,0,0,1-1.714,4.128,1.748,1.748,0,0,0,.059,1.85l3.539,5.291-2.915,2.931-5.3-3.55a1.748,1.748,0,0,0-1.85-.059,17.226,17.226,0,0,1-4.128,1.714A1.749,1.749,0,0,0,52.293,54.2l-1.252,6.255H46.915l-1.257-6.26A1.749,1.749,0,0,0,44.4,52.85a17.226,17.226,0,0,1-4.128-1.714,1.748,1.748,0,0,0-1.85.059L33.13,54.735,30.2,51.82l3.55-5.3a1.748,1.748,0,0,0,.059-1.85,17.226,17.226,0,0,1-1.714-4.128,1.749,1.749,0,0,0-1.343-1.257L24.5,38.036V33.909l6.26-1.257A1.749,1.749,0,0,0,32.1,31.395a17.226,17.226,0,0,1,1.714-4.128,1.748,1.748,0,0,0-.059-1.85l-3.539-5.291,2.915-2.931,5.3,3.55a1.748,1.748,0,0,0,1.85.059,17.226,17.226,0,0,1,4.128-1.714A1.749,1.749,0,0,0,45.656,17.747Z" transform="translate(13.976 -0.997)" fill="#3f3d56"/>
      <path id="Shape-4" data-name="Shape" d="M42.24,38.481A12.24,12.24,0,1,0,30,26.24,12.24,12.24,0,0,0,42.24,38.481Zm0-20.983A8.743,8.743,0,1,1,33.5,26.24,8.743,8.743,0,0,1,42.24,17.5Z" transform="translate(20.714 8.735)" fill="#3f3d56"/>
      <circle id="Oval" cx="1.749" cy="1.749" r="1.749" transform="translate(61.206 33.226)" fill="#3f3d56"/>
      <circle id="Oval-2" data-name="Oval" cx="1.749" cy="1.749" r="1.749" transform="translate(13.993 34.975)" fill="#3f3d56"/>
    </g>
  </g>
</svg>
