<svg xmlns="http://www.w3.org/2000/svg" width="32" height="32.361" viewBox="0 0 32 32.361">
  <path id="search-1" d="M25.607,29.371a.79.79,0,0,1-.086-.938,14.35,14.35,0,0,0,2.234-7.706A14.071,14.071,0,0,0,13.879,6.5,14.07,14.07,0,0,0,0,20.727,14.069,14.069,0,0,0,13.879,34.951a13.567,13.567,0,0,0,8-2.628.705.705,0,0,1,.9.066l4.96,5.085a.9.9,0,0,0,.1.092c.058.049.3.279.528.518l.589.6a.588.588,0,0,0,.842,0l2.022-2.073a.626.626,0,0,0,0-.866l-6.221-6.374Zm-3.334-2.017a10.736,10.736,0,0,1-1.542,1.663A10.4,10.4,0,0,1,13.879,31.6,10.762,10.762,0,0,1,3.264,20.727,10.765,10.765,0,0,1,13.879,9.846,10.762,10.762,0,0,1,24.49,20.727,10.994,10.994,0,0,1,22.272,27.353Z" transform="translate(0 -6.5)" fill="#fafafa"/>
</svg>
