<svg xmlns="http://www.w3.org/2000/svg" width="171.639" height="157.835" viewBox="0 0 171.639 157.835">
  <g id="chemistry" opacity="0.6">
    <path id="Path_323" data-name="Path 323" d="M495.346,291.2a3.356,3.356,0,0,0-3.354,3.35,3.062,3.062,0,0,0,.98,2.246,3.22,3.22,0,0,0,2.372.854h0a3.227,3.227,0,1,0,0-6.449Zm0,0" transform="translate(-327.061 -193.58)" fill="#fafafa"/>
    <path id="Path_324" data-name="Path 324" d="M154.876,97.609,139.64,97.6,126.093,74.1l14.446-24.985a3.354,3.354,0,0,0,0-3.354l-14.4-24.976L136.056,5.15a3.354,3.354,0,0,0-5.665-3.592l-10,15.713L91.3,17.216h0a3.385,3.385,0,0,0-2.9,1.709L73.937,43.879l-26.821-.065-6.982-12.79a3.356,3.356,0,0,0-5.889,3.22l7.007,12.819L27.489,70.87H3.354a3.354,3.354,0,0,0,0,6.707h24.4l13.354,23.194L32.9,112.6a3.357,3.357,0,0,0,5.509,3.837l8.509-12.252,27.007.018,13.507,23.431-8.29,13.37a3.354,3.354,0,0,0,5.7,3.534l8.419-13.585,26.732.047,14.5,25.152a3.353,3.353,0,1,0,5.81-3.35l-14.393-24.964,13.6-23.536,15.359.009a3.354,3.354,0,0,0,0-6.707ZM93.23,23.994l27.033.017,13.5,23.419L120.307,70.705l-27.033-.017-13.5-23.42ZM73.857,97.5l-26.919-.017-13.5-23.42,13.532-23.4,26.88.017L87.37,74.133Zm46.376,26.73L93.2,124.216,79.756,100.9,93.27,77.522l27.067.017,13.428,23.291Zm0,0" transform="translate(0 0)" fill="#fafafa"/>
    <path id="Path_325" data-name="Path 325" d="M85.123,58.98h0a3.375,3.375,0,0,0-.007-6.749A3.365,3.365,0,0,0,81.9,54.636a3.391,3.391,0,0,0,3.219,4.344Zm0,0" transform="translate(-54.356 -34.721)" fill="#fafafa"/>
    <path id="Path_326" data-name="Path 326" d="M78.8,365.092a3.353,3.353,0,0,0-4.668.842,3.354,3.354,0,1,0,4.668-.842Zm0,0" transform="translate(-48.881 -242.303)" fill="#fafafa"/>
    <path id="Path_327" data-name="Path 327" d="M218.622,450.409a3.352,3.352,0,1,0,1.5,2.086A3.361,3.361,0,0,0,218.622,450.409Zm0,0" transform="translate(-141.927 -299.083)" fill="#fafafa"/>
    <path id="Path_328" data-name="Path 328" d="M160.566,24.289a2.942,2.942,0,0,0,1.52.369,3.174,3.174,0,0,0,1.558-.369,1.156,1.156,0,0,0,.686-1.006V13.615h7.378v9.668a1.169,1.169,0,0,0,.681,1.006,3.107,3.107,0,0,0,1.564.369,2.93,2.93,0,0,0,1.494-.369,1.087,1.087,0,0,0,.621-1.006V1.475a1.041,1.041,0,0,0-.593-1.007,3.2,3.2,0,0,0-1.522-.335,3.416,3.416,0,0,0-1.574.335,1.11,1.11,0,0,0-.67,1.007v8.787h-7.376V1.475a1.123,1.123,0,0,0-.681-1.007,3.381,3.381,0,0,0-1.565-.335,3.149,3.149,0,0,0-1.51.335,1.048,1.048,0,0,0-.6,1.007V23.282a1.077,1.077,0,0,0,.593,1.007Zm0,0" transform="translate(-106.345 -0.088)" fill="#fafafa"/>
    <path id="Path_329" data-name="Path 329" d="M447.58,177.61a3.143,3.143,0,0,0-1.511-.337,3.477,3.477,0,0,0-1.591.337,1.123,1.123,0,0,0-.686,1.006v8.758h-7.378v-8.758a1.1,1.1,0,0,0-.657-1.006,3.324,3.324,0,0,0-1.554-.337,3.208,3.208,0,0,0-1.527.337,1.062,1.062,0,0,0-.621,1.006v21.807a1.1,1.1,0,0,0,.615,1.007,2.991,2.991,0,0,0,1.533.369,3.114,3.114,0,0,0,1.541-.369,1.137,1.137,0,0,0,.669-1.007v-9.7h7.378v9.7a1.2,1.2,0,0,0,.7,1.006,3.158,3.158,0,0,0,1.577.369,2.862,2.862,0,0,0,1.476-.369,1.072,1.072,0,0,0,.6-1.006V178.615A1.019,1.019,0,0,0,447.58,177.61Zm0,0" transform="translate(-287.216 -117.845)" fill="#fafafa"/>
    <path id="Path_330" data-name="Path 330" d="M30.763,264.165a4.355,4.355,0,0,1,1.553.251,2.613,2.613,0,0,1,1,.6,2.864,2.864,0,0,1,.549.873,3.865,3.865,0,0,1,.265.838c.034.213.06.465.082.756q.033,1.375,2.18,1.375a2.485,2.485,0,0,0,1.677-.453,2.239,2.239,0,0,0,.5-1.694,5.585,5.585,0,0,0-2.231-4.629,9.067,9.067,0,0,0-5.754-1.746,8.128,8.128,0,0,0-5.556,1.862c-1.431,1.241-2.1,3.182-2.1,5.821v9.362c0,2.639.664,4.579,2.085,5.821a8.122,8.122,0,0,0,5.563,1.862,8.859,8.859,0,0,0,5.775-1.812,5.9,5.9,0,0,0,2.226-4.831,2.19,2.19,0,0,0-.524-1.695,2.569,2.569,0,0,0-1.7-.453q-2.047,0-2.148,1.375a6.555,6.555,0,0,1-.151,1.192,5.148,5.148,0,0,1-.437,1.108,2.126,2.126,0,0,1-1.04.956,4.027,4.027,0,0,1-1.749.335c-2.394,0-3.543-1.286-3.543-3.858v-9.36c0-2.572,1.127-3.859,3.477-3.859Zm0,0" transform="translate(-15.24 -173.066)" fill="#fafafa"/>
  </g>
</svg>
