<svg xmlns="http://www.w3.org/2000/svg" width="122.213" height="73.296" viewBox="0 0 122.213 73.296">
  <g id="friction" transform="translate(0 -4.606)" opacity="0.6">
    <g id="Group_63" data-name="Group 63" transform="translate(31.071 5.549)">
      <path id="Path_353" data-name="Path 353" d="M23.747,50.32a7.822,7.822,0,0,1-2.073-.285,7.608,7.608,0,0,1-4.6-3.605L7.085,28.672A7.636,7.636,0,0,1,10,18.274L32.185,5.782a7.637,7.637,0,0,1,10.4,2.9L52.58,26.437a7.629,7.629,0,0,1-2.908,10.4L27.48,49.337a7.574,7.574,0,0,1-3.733.983ZM35.923,9.887a2.573,2.573,0,0,0-1.243.326l-22.187,12.5a2.55,2.55,0,0,0-1.2,1.533,2.517,2.517,0,0,0,.234,1.935l9.991,17.752a2.549,2.549,0,0,0,3.463.973L47.167,32.41a2.55,2.55,0,0,0,1.2-1.533,2.507,2.507,0,0,0-.234-1.93L38.143,11.2a2.536,2.536,0,0,0-1.533-1.2,2.278,2.278,0,0,0-.687-.107Z" transform="translate(-6.102 -4.791)" fill="#fafafa"/>
    </g>
    <g id="Group_64" data-name="Group 64" transform="translate(69.108 7.414)">
      <path id="Path_354" data-name="Path 354" d="M0,0H20.369V5.092H0Z" transform="translate(0 9.981) rotate(-29.333)" fill="#fafafa"/>
    </g>
    <g id="Group_65" data-name="Group 65" transform="translate(76.864 4.606)">
      <path id="Path_355" data-name="Path 355" d="M23.891,20.793a2.463,2.463,0,0,1-.687-.1,2.546,2.546,0,0,1-1.767-3.137l1.736-6.218L16.956,9.6a2.546,2.546,0,1,1,1.37-4.9L27,7.125a2.546,2.546,0,0,1,1.767,3.137l-2.424,8.672a2.547,2.547,0,0,1-2.449,1.859Z" transform="translate(-15.095 -4.606)" fill="#fafafa"/>
    </g>
    <g id="Group_66" data-name="Group 66" transform="translate(20.255 34.894)">
      <path id="Path_356" data-name="Path 356" d="M0,0H20.369V5.092H0Z" transform="translate(0 9.981) rotate(-29.333)" fill="#fafafa"/>
    </g>
    <g id="Group_67" data-name="Group 67" transform="translate(18.975 35.831)">
      <path id="Path_357" data-name="Path 357" d="M14.948,26.926a2.463,2.463,0,0,1-.687-.1L5.588,24.4a2.546,2.546,0,0,1-1.767-3.137L6.245,12.6a2.546,2.546,0,1,1,4.9,1.37L9.412,20.183,15.63,21.92a2.551,2.551,0,0,1-.682,5.006Z" transform="translate(-3.726 -10.738)" fill="#fafafa"/>
    </g>
    <g id="Group_68" data-name="Group 68" transform="translate(60.08 40.33)">
      <path id="Path_358" data-name="Path 358" d="M0,0H5.092V25.462H0Z" transform="translate(0 2.5) rotate(-29.411)" fill="#fafafa"/>
    </g>
    <g id="Group_69" data-name="Group 69" transform="translate(63.568 52.592)">
      <path id="Path_359" data-name="Path 359" d="M23.7,27.8a2.463,2.463,0,0,1-.687-.1l-8.672-2.424a2.546,2.546,0,1,1,1.37-4.9l6.218,1.736,1.736-6.218a2.546,2.546,0,1,1,4.9,1.37l-2.424,8.672a2.554,2.554,0,0,1-1.2,1.533A2.481,2.481,0,0,1,23.7,27.8Z" transform="translate(-12.484 -14.03)" fill="#fafafa"/>
    </g>
    <g id="Group_70" data-name="Group 70" transform="translate(0 6.606)">
      <path id="Path_360" data-name="Path 360" d="M119.668,76.3H2.544A2.549,2.549,0,0,1,1.292,71.53L118.415,5.33a2.544,2.544,0,0,1,3.8,2.22v66.2a2.547,2.547,0,0,1-2.546,2.546ZM12.225,71.2h104.9V11.914Z" transform="translate(0 -4.999)" fill="#fafafa"/>
    </g>
  </g>
</svg>
