<svg xmlns="http://www.w3.org/2000/svg" width="90.212" height="96.975" viewBox="0 0 90.212 96.975">
  <g id="atom" opacity="0.6">
    <path id="Path_292" data-name="Path 292" d="M61.5,50.25A11.252,11.252,0,1,0,72.755,61.5,11.252,11.252,0,0,0,61.5,50.25Zm0,19.64A8.388,8.388,0,1,1,69.89,61.5,8.388,8.388,0,0,1,61.5,69.89Z" transform="translate(-16.243 -13.015)" fill="#fafafa"/>
    <path id="Path_293" data-name="Path 293" d="M69.139,62.25a1.432,1.432,0,0,0-1.432,1.432,3.5,3.5,0,0,1-1.734,3.008,1.432,1.432,0,0,0,1.443,2.475,6.371,6.371,0,0,0,3.156-5.483A1.432,1.432,0,0,0,69.139,62.25Z" transform="translate(-18.97 -15.195)" fill="#fafafa"/>
    <path id="Path_294" data-name="Path 294" d="M90.968,49.89a6.339,6.339,0,0,0,6.084-10.616c-.1-.1-.214-.2-.327-.292,1.064-3.858.818-7.218-.78-9.989C92.507,23.036,83.482,21.084,71.1,23.55c-4.07-11.958-10.276-18.8-17.144-18.8s-13.073,6.841-17.147,18.8c-12.387-2.467-21.41-.515-24.846,5.442-1.549,2.676-1.821,6.039-.833,9.771a6.342,6.342,0,0,0,5.76,11.06c.849,1.13,1.78,2.273,2.782,3.418-8.322,9.5-11.144,18.288-7.711,24.239,2.467,4.278,7.808,6.5,15.207,6.5a50.049,50.049,0,0,0,9.638-1.057c4.073,11.961,10.28,18.8,17.149,18.8,3.1,0,6.164-1.455,8.914-4.193A6.339,6.339,0,0,0,69.9,87.244c-.1-.1-.214-.2-.322-.293.536-1.268,1.049-2.619,1.534-4.031a49.938,49.938,0,0,0,9.634,1.057c7.4,0,12.74-2.219,15.207-6.5,3.437-5.951.611-14.743-7.709-24.238C89.2,52.141,90.116,51.02,90.968,49.89Zm4.057-3.671a3.482,3.482,0,0,1-4.917,0h0a3.476,3.476,0,1,1,4.918,0ZM93.466,30.425a9.63,9.63,0,0,1,.662,7.2,6.338,6.338,0,0,0-6.049,10.619c.1.1.214.2.322.293q-1,1.3-2.1,2.576a86.537,86.537,0,0,0-11.426-9.952,87.6,87.6,0,0,0-2.9-14.869c10.792-2.087,18.774-.582,21.492,4.13Zm-24.3,49.149a82.041,82.041,0,0,1-11.684-3.8c2.443-1.181,4.876-2.464,7.263-3.842,2.406-1.391,4.734-2.858,6.956-4.376a82,82,0,0,1-2.534,12.016Zm-30.425,0A81.982,81.982,0,0,1,36.2,67.558c2.228,1.518,4.555,2.986,6.96,4.376,2.385,1.378,4.815,2.663,7.262,3.842a82.051,82.051,0,0,1-11.685,3.8Zm0-52.672a82.01,82.01,0,0,1,11.684,3.8c-2.444,1.181-4.876,2.464-7.263,3.846-2.406,1.391-4.734,2.858-6.96,4.376A81.959,81.959,0,0,1,38.742,26.9ZM32.677,61.449a80.846,80.846,0,0,1-9.134-8.211,80.942,80.942,0,0,1,9.134-8.211c-.2,2.7-.309,5.453-.309,8.211S32.473,58.745,32.677,61.449Zm11.921,8c-3.1-1.79-6.066-3.711-8.844-5.71-.342-3.43-.522-6.956-.522-10.505s.18-7.075.522-10.505c2.775-2,5.742-3.919,8.844-5.71,3.069-1.773,6.215-3.386,9.357-4.81,3.145,1.426,6.29,3.038,9.359,4.81,3.1,1.79,6.066,3.711,8.844,5.71.342,3.43.522,6.956.522,10.505s-.18,7.075-.522,10.505c-2.775,2-5.742,3.919-8.844,5.71-3.069,1.773-6.215,3.386-9.357,4.81-3.147-1.426-6.291-3.038-9.36-4.81ZM69.168,26.9A81.981,81.981,0,0,1,71.7,38.914c-2.228-1.518-4.555-2.986-6.956-4.376s-4.821-2.66-7.268-3.839a82.05,82.05,0,0,1,11.685-3.8Zm6.063,18.128a80.848,80.848,0,0,1,9.134,8.211,80.94,80.94,0,0,1-9.134,8.211c.2-2.7.309-5.453.309-8.211S75.435,47.73,75.231,45.026ZM53.954,7.614c5.432,0,10.731,6.161,14.333,16.551a87.833,87.833,0,0,0-14.334,4.91,87.766,87.766,0,0,0-14.333-4.91C43.224,13.775,48.522,7.614,53.954,7.614Zm-41.385,38.6h0a3.483,3.483,0,1,1,2.46,1.016,3.483,3.483,0,0,1-2.46-1.016Zm6.944-6.945a6.342,6.342,0,0,0-5.747-1.726,9.506,9.506,0,0,1,.675-7.12c2.719-4.715,10.7-6.219,21.493-4.132a87.653,87.653,0,0,0-2.9,14.869A86.474,86.474,0,0,0,21.609,51.11q-1.2-1.38-2.234-2.743c.045-.043.093-.082.137-.125a6.348,6.348,0,0,0,0-8.969ZM14.439,76.049c-2.712-4.707-.026-12.374,7.174-20.684a86.51,86.51,0,0,0,11.423,9.947,87.6,87.6,0,0,0,2.9,14.869c-10.793,2.085-18.775.581-21.493-4.132ZM67.87,94.188a3.484,3.484,0,1,1,1.016-2.46,3.484,3.484,0,0,1-1.016,2.46Zm-2.455-8.8A6.34,6.34,0,0,0,60.559,95.8a9.619,9.619,0,0,1-6.6,3.057c-5.432,0-10.731-6.161-14.333-16.551A87.832,87.832,0,0,0,53.959,77.4a87.775,87.775,0,0,0,14.336,4.91c-.4,1.15-.818,2.25-1.255,3.294a6.361,6.361,0,0,0-1.629-.215Zm28.056-9.339c-2.719,4.714-10.7,6.219-21.493,4.132a87.653,87.653,0,0,0,2.9-14.869,86.47,86.47,0,0,0,11.418-9.946c7.2,8.31,9.886,15.977,7.173,20.684Z" transform="translate(-8.695 -4.75)" fill="#fafafa"/>
  </g>
</svg>
