<svg xmlns="http://www.w3.org/2000/svg" width="135.669" height="135.669" viewBox="0 0 135.669 135.669">
  <g id="mathematics" transform="translate(0 -0.501)" opacity="0.6">
    <path id="Path_336" data-name="Path 336" d="M2.651,11.1A2.651,2.651,0,0,0,5.177,9.25,2.65,2.65,0,0,0,8.272,5.024L4.524,1.277A2.65,2.65,0,0,0,0,3.15v5.3A2.65,2.65,0,0,0,2.651,11.1Zm0,0" transform="translate(0 0)" fill="#fafafa"/>
    <path id="Path_337" data-name="Path 337" d="M2.651,66.889A2.65,2.65,0,1,0,0,64.24a2.651,2.651,0,0,0,2.651,2.65Zm0,0" transform="translate(0 -44.902)" fill="#fafafa"/>
    <path id="Path_338" data-name="Path 338" d="M2.651,190.159A2.65,2.65,0,1,0,0,187.509a2.653,2.653,0,0,0,2.651,2.65Zm0,0" transform="translate(0 -135.507)" fill="#fafafa"/>
    <path id="Path_339" data-name="Path 339" d="M2.651,118.868a2.653,2.653,0,0,0,2.65-2.65V105.33a2.65,2.65,0,0,0-5.3,0v10.888a2.652,2.652,0,0,0,2.651,2.65Zm0,0" transform="translate(0 -75.104)" fill="#fafafa"/>
    <path id="Path_340" data-name="Path 340" d="M2.651,313.441A2.65,2.65,0,1,0,0,310.791a2.655,2.655,0,0,0,2.651,2.65Zm0,0" transform="translate(0 -226.122)" fill="#fafafa"/>
    <path id="Path_341" data-name="Path 341" d="M2.651,436.71A2.65,2.65,0,1,0,0,434.06a2.655,2.655,0,0,0,2.651,2.65Zm0,0" transform="translate(0 -316.727)" fill="#fafafa"/>
    <path id="Path_342" data-name="Path 342" d="M2.651,242.137a2.653,2.653,0,0,0,2.65-2.65V228.6a2.65,2.65,0,0,0-5.3,0v10.888a2.652,2.652,0,0,0,2.651,2.65Zm0,0" transform="translate(0 -165.709)" fill="#fafafa"/>
    <path id="Path_343" data-name="Path 343" d="M2.651,365.418a2.655,2.655,0,0,0,2.65-2.65V351.88a2.65,2.65,0,0,0-5.3,0v10.888a2.654,2.654,0,0,0,2.651,2.65Zm0,0" transform="translate(0 -256.323)" fill="#fafafa"/>
    <path id="Path_344" data-name="Path 344" d="M207.324,210.443a2.65,2.65,0,1,0-1.873-.776,2.635,2.635,0,0,0,1.873.776Zm0,0" transform="translate(-150.441 -150.417)" fill="#fafafa"/>
    <path id="Path_345" data-name="Path 345" d="M125.672,128.8a2.637,2.637,0,1,0-1.876-.765,2.642,2.642,0,0,0,1.876.765Zm0,0" transform="translate(-90.424 -90.424)" fill="#fafafa"/>
    <path id="Path_346" data-name="Path 346" d="M158.224,162.444a2.65,2.65,0,1,0,3.747-3.747l-7.21-7.213a2.651,2.651,0,1,0-3.75,3.747Zm0,0" transform="translate(-110.426 -110.405)" fill="#fafafa"/>
    <path id="Path_347" data-name="Path 347" d="M76.567,80.806a2.651,2.651,0,1,0,3.75-3.749L73.1,69.846a2.649,2.649,0,1,0-3.747,3.746Zm0,0" transform="translate(-50.407 -50.4)" fill="#fafafa"/>
    <path id="Path_348" data-name="Path 348" d="M44.019,47.128a2.624,2.624,0,0,0,2.649-2.618,2.65,2.65,0,0,0-5.3,0,2.622,2.622,0,0,0,2.652,2.619Zm0,0" transform="translate(-30.406 -30.399)" fill="#fafafa"/>
    <path id="Path_349" data-name="Path 349" d="M134.913,302.067,65.971,233.134a2.65,2.65,0,0,0-3.748,3.748l1.873,1.874L5.13,297.712A2.649,2.649,0,0,0,0,298.64v5.3a2.72,2.72,0,0,0,2.651,2.65H133.038a2.672,2.672,0,0,0,1.875-4.523ZM18.452,291.888a19.793,19.793,0,0,1,3.895,9.4H9.048Zm9.238,9.4c0-.039-.01-.078-.014-.117a25.162,25.162,0,0,0-5.446-13.063L67.845,242.5l58.8,58.788Zm0,0" transform="translate(0 -170.42)" fill="#fafafa"/>
    <path id="Path_350" data-name="Path 350" d="M82.386,277.247c.795,0,2.141-.379,2.141-1.391v-8.31a6.572,6.572,0,0,0-1.8-4.731q-1.8-1.882-5.5-1.882a9.5,9.5,0,0,0-3.687.729c-1.458.609-2.261,1.677-1.342,3.206.608,1.01,1.507.547,2.343.1,1.354-.718,3.821-1.005,4.878.383a3.61,3.61,0,0,1,.73,2.249v.453H78.75a12.755,12.755,0,0,0-5.878,1.088,3.9,3.9,0,0,0-2.039,3.759,4.355,4.355,0,0,0,4.418,4.651,6.693,6.693,0,0,0,5.165-2.843v1.051c0,1.018,1.151,1.486,1.971,1.486Zm-3.263-4.12a3.059,3.059,0,0,1-2.106.965,1.7,1.7,0,0,1-1.8-1.737,1.581,1.581,0,0,1,1.172-1.625,16.716,16.716,0,0,1,3.755-.4,3.587,3.587,0,0,1-1.02,2.8Zm0,0" transform="translate(-52.064 -191.423)" fill="#fafafa"/>
    <path id="Path_351" data-name="Path 351" d="M376.607,250.346a1.593,1.593,0,0,0,.088.338,1.886,1.886,0,0,0,1.574,1.04,2.44,2.44,0,0,0,1.909-.524,1.678,1.678,0,0,0,.483-1.848A5.533,5.533,0,0,0,387.6,251.5c2.519-1.209,3.7-4.2,3.887-6.986a10.463,10.463,0,0,0-1.075-5.72,6.376,6.376,0,0,0-4.593-3.351A4.622,4.622,0,0,0,381,238.062q-.022-4.866-.045-9.731a2.581,2.581,0,0,0-.195-1.189c-.613-1.178-3.425-1.243-3.989-.007a3.353,3.353,0,0,0-.2,1.406q0,10.6.009,21.189a4.091,4.091,0,0,0,.031.617Zm4.351-8.023a2.8,2.8,0,0,1,.935-2.188,3.043,3.043,0,0,1,2.09-.842,2.816,2.816,0,0,1,2.106.925,2.967,2.967,0,0,1,.884,2.1v2.761a3.081,3.081,0,0,1-.884,2.137,2.733,2.733,0,0,1-2.072.96,2.94,2.94,0,0,1-2.124-.925,2.524,2.524,0,0,1-.935-1.565Zm0,0" transform="translate(-276.785 -165.918)" fill="#fafafa"/>
    <path id="Path_352" data-name="Path 352" d="M243.4,413.883V416.6c0,4.416,3.156,6.954,7.374,6.954a8.417,8.417,0,0,0,3.958-.865c1.365-.716,2.186-1.938,1.122-3.307-.754-.969-1.666-.651-2.6-.186a4.731,4.731,0,0,1-2.142.492q-3.33,0-3.33-3.1v-2.692q0-3.1,3.3-3.1c1.229,0,2.24.915,3.364.916,1.011,0,1.734-1.227,1.734-2.137,0-2.155-3.945-2.646-5.437-2.646C246.576,406.93,243.4,409.554,243.4,413.883Zm0,0" transform="translate(-178.903 -298.734)" fill="#fafafa"/>
  </g>
</svg>
