<svg xmlns="http://www.w3.org/2000/svg" width="1920" height="992.694" viewBox="0 0 1920 992.694">
  <g id="Group_89" data-name="Group 89" transform="translate(-0.001 5.695)">
    <path id="Subtraction_10" data-name="Subtraction 10" d="M8001,1017c-38.442,0-77.211-1.128-115.229-3.352-37.49-2.2-75.139-5.508-111.9-9.842-36.278-4.278-72.616-9.662-108.005-16-34.939-6.264-69.777-13.613-103.544-21.843-33.419-8.147-66.564-17.349-98.514-27.351-31.694-9.92-62.958-20.865-92.922-32.531-29.82-11.611-59.011-24.192-86.761-37.391-27.709-13.179-54.636-27.283-80.033-41.919-25.427-14.655-49.9-30.174-72.737-46.125-22.914-16-44.742-32.82-64.877-50-9.75-8.315-19.33-16.914-28.476-25.561V30H8958V710.687c-7.242,6.7-14.8,13.411-22.475,19.955-20.142,17.182-41.97,34-64.879,50-22.873,15.973-47.346,31.492-72.738,46.125-25.427,14.654-52.354,28.758-80.032,41.919-27.728,13.19-56.918,25.77-86.76,37.391-29.924,11.65-61.187,22.6-92.92,32.531-31.91,9.991-65.057,19.193-98.517,27.351-33.767,8.229-68.6,15.578-103.546,21.843-35.392,6.341-71.73,11.725-108.006,16-36.762,4.335-74.411,7.646-111.9,9.842C8078.21,1015.871,8039.441,1017,8001,1017Z" transform="translate(-7038 -30)" fill="#060626"/>
    <circle id="Ellipse_58" data-name="Ellipse 58" cx="5" cy="5" r="5" transform="translate(141 247)" fill="#fff"/>
    <circle id="Ellipse_59" data-name="Ellipse 59" cx="5" cy="5" r="5" transform="translate(233 281)" fill="#fff"/>
    <circle id="Ellipse_60" data-name="Ellipse 60" cx="5" cy="5" r="5" transform="translate(458 158)" fill="#fff"/>
    <circle id="Ellipse_61" data-name="Ellipse 61" cx="5" cy="5" r="5" transform="translate(421 423)" fill="#fff"/>
    <circle id="Ellipse_62" data-name="Ellipse 62" cx="5" cy="5" r="5" transform="translate(453 649)" fill="#fff"/>
    <circle id="Ellipse_63" data-name="Ellipse 63" cx="5" cy="5" r="5" transform="translate(115 634)" fill="#fff"/>
    <circle id="Ellipse_64" data-name="Ellipse 64" cx="4.5" cy="4.5" r="4.5" transform="translate(748 45)" fill="#fff"/>
    <circle id="Ellipse_65" data-name="Ellipse 65" cx="4.5" cy="4.5" r="4.5" transform="translate(1039 204)" fill="#fff"/>
    <circle id="Ellipse_66" data-name="Ellipse 66" cx="4.5" cy="4.5" r="4.5" transform="translate(1473 433)" fill="#fff"/>
    <circle id="Ellipse_67" data-name="Ellipse 67" cx="4.5" cy="4.5" r="4.5" transform="translate(1801 151)" fill="#fff"/>
    <circle id="Ellipse_68" data-name="Ellipse 68" cx="4.5" cy="4.5" r="4.5" transform="translate(1684 742)" fill="#fff"/>
    <circle id="Ellipse_69" data-name="Ellipse 69" cx="2.5" cy="2.5" r="2.5" transform="translate(1867 521)" fill="#fff"/>
    <circle id="Ellipse_70" data-name="Ellipse 70" cx="2.5" cy="2.5" r="2.5" transform="translate(1796 359)" fill="#fff"/>
    <circle id="Ellipse_71" data-name="Ellipse 71" cx="2.5" cy="2.5" r="2.5" transform="translate(1645 531)" fill="#fff"/>
    <circle id="Ellipse_72" data-name="Ellipse 72" cx="2.5" cy="2.5" r="2.5" transform="translate(1393 634)" fill="#fff"/>
    <circle id="Ellipse_73" data-name="Ellipse 73" cx="2.5" cy="2.5" r="2.5" transform="translate(1338 872)" fill="#fff"/>
    <circle id="Ellipse_74" data-name="Ellipse 74" cx="2.5" cy="2.5" r="2.5" transform="translate(1053 842)" fill="#fff"/>
    <circle id="Ellipse_75" data-name="Ellipse 75" cx="2.5" cy="2.5" r="2.5" transform="translate(783 955)" fill="#fff"/>
    <circle id="Ellipse_76" data-name="Ellipse 76" cx="2.5" cy="2.5" r="2.5" transform="translate(875 717)" fill="#fff"/>
    <circle id="Ellipse_77" data-name="Ellipse 77" cx="2.5" cy="2.5" r="2.5" transform="translate(499 853)" fill="#fff"/>
    <circle id="Ellipse_78" data-name="Ellipse 78" cx="2.5" cy="2.5" r="2.5" transform="translate(275 706)" fill="#fff"/>
    <circle id="Ellipse_79" data-name="Ellipse 79" cx="2.5" cy="2.5" r="2.5" transform="translate(79 465)" fill="#fff"/>
    <circle id="Ellipse_80" data-name="Ellipse 80" cx="2.5" cy="2.5" r="2.5" transform="translate(264 412)" fill="#fff"/>
    <circle id="Ellipse_81" data-name="Ellipse 81" cx="2.5" cy="2.5" r="2.5" transform="translate(1548 216)" fill="#fff"/>
    <circle id="Ellipse_82" data-name="Ellipse 82" cx="2.5" cy="2.5" r="2.5" transform="translate(1277 346)" fill="#fff"/>
  </g>
</svg>
